<?xml version="1.0" encoding="utf-8"?>
<!-- Svg Vector Icons : http://www.onlinewebfonts.com/icon -->
<!DOCTYPE svg PUBLIC "-//W3C//DTD SVG 1.1//EN" "http://www.w3.org/Graphics/SVG/1.1/DTD/svg11.dtd">
<svg version="1.1" xmlns="http://www.w3.org/2000/svg" xmlns:xlink="http://www.w3.org/1999/xlink" x="0px" y="0px" viewBox="0 0 1000 1000" enable-background="new 0 0 1000 1000" xml:space="preserve">
<metadata> Svg Vector Icons : http://www.onlinewebfonts.com/icon </metadata>
<g><path fill="#eeeeda" d="M960.9,820.2c18,18,29.1,42.9,29.1,70.3c0,54.9-44.5,99.5-99.4,99.5c-27.5,0-52.3-11.1-70.3-29.1l0,0L609.6,750.2c-59.2,35-128,55.4-201.8,55.4C188.1,805.6,10,627.5,10,407.8C10,188.1,188.1,10,407.8,10c219.7,0,397.8,178.1,397.8,397.8c0,73.7-20.4,142.6-55.4,201.8L960.9,820.2L960.9,820.2z M407.8,109.4C243,109.4,109.4,243,109.4,407.8c0,164.8,133.6,298.3,298.3,298.3s298.3-133.6,298.3-298.3C706.1,243,572.6,109.4,407.8,109.4z"/></g>
</svg>