<?xml version="1.0" encoding="utf-8"?>
<!-- Svg Vector Icons : http://www.onlinewebfonts.com/icon -->
<!DOCTYPE svg PUBLIC "-//W3C//DTD SVG 1.1//EN" "http://www.w3.org/Graphics/SVG/1.1/DTD/svg11.dtd">
<svg version="1.1" xmlns="http://www.w3.org/2000/svg" xmlns:xlink="http://www.w3.org/1999/xlink" x="0px" y="0px" viewBox="0 0 1000 1000" enable-background="new 0 0 1000 1000" xml:space="preserve">
<metadata> Svg Vector Icons : http://www.onlinewebfonts.com/icon </metadata>
<g><path fill="#eeeeda" d="M780,10H220C142.8,10,80,72.8,80,150v750.7c0,20.1,5.4,38.6,15.6,53.6c15.2,22.3,40.3,35.7,67.1,35.7c14.4,0,36.2-3.8,58.6-22.1L500,741.2l278.7,226.7c22.4,18.3,44.3,22.1,58.6,22.1c0,0,0,0,0,0c26.9,0,52-13.3,67.1-35.7c10.2-15,15.6-33.6,15.6-53.7V150C920,72.8,857.2,10,780,10z"/></g>
</svg>